<svg width="58" height="58" viewBox="0 0 58 58" fill="none" xmlns="http://www.w3.org/2000/svg">
<g clip-path="url(#clip0_1128_8088)">
<rect width="58" height="58" fill="url(#paint0_linear_1128_8088)"/>
<path d="M24.5658 41.876C28.6101 35.5518 48.3333 29.6794 62.0937 22C65.7631 24.4092 83.1936 21.5483 57.0485 37.3587C30.9034 53.1692 22.1584 45.6406 24.5658 41.876Z" fill="#323232" fill-opacity="0.27"/>
<path d="M19.5063 35.161C11.1992 33.7345 8.4302 26.1261 9.35321 22.3219C12.1224 16.1401 18.5832 18.9932 21.8137 19.4687C25.0443 19.9442 25.9673 18.5177 28.7363 18.0421C30.9515 17.6617 34.4282 19.9442 35.1974 21.3708C37.9664 21.6878 42.4892 23.0827 43.966 24.224C45.812 25.6505 45.3505 30.4058 43.966 35.6366C42.8584 39.8212 39.5048 40.2333 37.9664 39.9163C34.2744 40.2967 30.1208 35.6366 27.8133 35.161C25.5058 34.6855 23.6597 35.8743 19.5063 35.161Z" fill="white"/>
<path fill-rule="evenodd" clip-rule="evenodd" d="M9.17032 22.5487C8.24349 26.256 11.024 33.6706 19.3654 35.0609C21.6984 35.4497 23.3064 35.2585 24.676 35.0957C25.7549 34.9674 26.6858 34.8567 27.7068 35.0609C28.591 35.2377 29.7451 36.0084 31.0404 36.8733C33.1395 38.275 35.6093 39.9243 37.9019 39.695C39.4466 40.004 42.8141 39.6023 43.9263 35.5243C44.1567 34.6795 44.3616 33.8475 44.5348 33.0408C42.7967 34.8587 40.7015 36.1692 39.2921 36.4511C37.2294 36.8637 34.4322 35.4399 31.8812 34.1415C31.5667 33.9814 31.2559 33.8232 30.9507 33.6706C29.3117 32.8511 27.6727 32.6757 25.8439 32.48C24.5702 32.3437 23.2044 32.1975 21.6824 31.817C17.975 30.8901 16.5848 26.7194 16.1214 24.4023C15.658 22.0852 14.7311 20.2316 13.8043 19.7682C13.3675 19.5498 12.5191 19.4343 11.3559 19.8098C10.5062 20.4014 9.75604 21.2797 9.17032 22.5487Z" fill="#CCDCEF"/>
<path fill-rule="evenodd" clip-rule="evenodd" d="M9.17032 22.5488C8.24349 26.2561 11.024 33.6707 19.3654 35.061C21.6984 35.4498 23.3064 35.2586 24.676 35.0957C24.7377 35.0884 24.799 35.0811 24.8598 35.074C15.8994 34.9428 12.8775 27.9645 12.8775 23.939C12.8775 21.4939 11.6033 20.3229 10.2688 20.7997C9.86048 21.2771 9.49078 21.8545 9.17032 22.5488Z" fill="#87B1E2"/>
<path fill-rule="evenodd" clip-rule="evenodd" d="M36.3742 0L29.1836 18.4061C30.425 18.7211 32.3487 20.0126 33.8384 22.6587C35.7005 25.9664 38.0281 27.3839 39.8902 26.9114C41.3799 26.5334 42.9937 25.4938 43.6144 25.0213L53.4501 5.42425C50.3461 2.08735 45.9168 0 41 0H36.3742Z" fill="#CCDCEF"/>
</g>
<defs>
<linearGradient id="paint0_linear_1128_8088" x1="29" y1="0" x2="29" y2="58" gradientUnits="userSpaceOnUse">
<stop stop-color="#1479EF"/>
<stop offset="1" stop-color="#3A95FF"/>
</linearGradient>
<clipPath id="clip0_1128_8088">
<rect width="58" height="58" fill="white"/>
</clipPath>
</defs>
</svg>
