<svg width="22" height="22" viewBox="0 0 22 22" fill="none" xmlns="http://www.w3.org/2000/svg">
<circle cx="10.9996" cy="11" r="7.46154" stroke="white" stroke-width="2"/>
<path fill-rule="evenodd" clip-rule="evenodd" d="M10 17.8513V22H12V17.8515C11.6736 17.8987 11.3399 17.9231 11.0005 17.9231C10.6607 17.9231 10.3267 17.8986 10 17.8513ZM17.8519 12H22V10H17.8519C17.8991 10.3265 17.9235 10.6604 17.9235 11C17.9235 11.3396 17.8991 11.6735 17.8519 12ZM12 4.14856V0H10V4.14869C10.3267 4.10141 10.6607 4.07693 11.0005 4.07693C11.3399 4.07693 11.6736 4.10136 12 4.14856ZM4.14909 10H0V12H4.14908C4.10184 11.6735 4.07739 11.3396 4.07739 11C4.07739 10.6604 4.10184 10.3265 4.14909 10Z" fill="white"/>
</svg>
