<svg width="22" height="14" viewBox="0 0 22 14" fill="none" xmlns="http://www.w3.org/2000/svg">
<path fill-rule="evenodd" clip-rule="evenodd" d="M5.70711 0.792893C5.31658 0.402369 4.68342 0.402369 4.29289 0.792893L0.292893 4.79289C-0.0976311 5.18342 -0.0976311 5.81658 0.292893 6.20711C0.683418 6.59763 1.31658 6.59763 1.70711 6.20711L4 3.91421V12.5C4 13.0523 4.44772 13.5 5 13.5C5.55228 13.5 6 13.0523 6 12.5V3.91421L8.29289 6.20711C8.68342 6.59763 9.31658 6.59763 9.70711 6.20711C10.0976 5.81658 10.0976 5.18342 9.70711 4.79289L5.70711 0.792893Z" fill="#2589FF"/>
<path fill-rule="evenodd" clip-rule="evenodd" d="M17.2071 0.792893C16.8166 0.402369 16.1834 0.402369 15.7929 0.792893L11.7929 4.79289C11.4024 5.18342 11.4024 5.81658 11.7929 6.20711C12.1834 6.59763 12.8166 6.59763 13.2071 6.20711L15.5 3.91421V12.5C15.5 13.0523 15.9477 13.5 16.5 13.5C17.0523 13.5 17.5 13.0523 17.5 12.5V3.91421L19.7929 6.20711C20.1834 6.59763 20.8166 6.59763 21.2071 6.20711C21.5976 5.81658 21.5976 5.18342 21.2071 4.79289L17.2071 0.792893Z" fill="#2589FF"/>
</svg>
