<svg width="22" height="14" viewBox="0 0 22 14" fill="none" xmlns="http://www.w3.org/2000/svg">
<path fill-rule="evenodd" clip-rule="evenodd" d="M5.70711 13.2071C5.31658 13.5976 4.68342 13.5976 4.29289 13.2071L0.292893 9.20711C-0.0976311 8.81658 -0.0976311 8.18342 0.292893 7.79289C0.683418 7.40237 1.31658 7.40237 1.70711 7.79289L4 10.0858V1.5C4 0.947715 4.44772 0.5 5 0.5C5.55228 0.5 6 0.947715 6 1.5V10.0858L8.29289 7.79289C8.68342 7.40237 9.31658 7.40237 9.70711 7.79289C10.0976 8.18342 10.0976 8.81658 9.70711 9.20711L5.70711 13.2071Z" fill="#FF0808"/>
<path fill-rule="evenodd" clip-rule="evenodd" d="M17.2071 13.2071C16.8166 13.5976 16.1834 13.5976 15.7929 13.2071L11.7929 9.20711C11.4024 8.81658 11.4024 8.18342 11.7929 7.79289C12.1834 7.40237 12.8166 7.40237 13.2071 7.79289L15.5 10.0858V1.5C15.5 0.947715 15.9477 0.5 16.5 0.5C17.0523 0.5 17.5 0.947715 17.5 1.5V10.0858L19.7929 7.79289C20.1834 7.40237 20.8166 7.40237 21.2071 7.79289C21.5976 8.18342 21.5976 8.81658 21.2071 9.20711L17.2071 13.2071Z" fill="#FF0808"/>
</svg>
