<svg width="101" height="74" viewBox="0 0 101 74" fill="none" xmlns="http://www.w3.org/2000/svg">
<path fill-rule="evenodd" clip-rule="evenodd" d="M21.1864 2.07055C16.9187 0.927018 12.532 3.45968 11.3884 7.72741L2.07095 42.5007C0.927412 46.7685 3.46008 51.1552 7.72781 52.2987L79.5743 71.5499C83.842 72.6934 88.2287 70.1608 89.3722 65.893L91.6276 57.4758C86.6742 56.1483 83.7346 51.0567 85.0619 46.1032C86.3892 41.1497 91.4808 38.21 96.4343 39.5371L98.6897 31.1197C99.8333 26.852 97.3006 22.4653 93.0329 21.3218L21.1864 2.07055Z" fill="#53A2FF"/>
<path d="M21.4835 26.4145C21.5933 25.2125 20.8458 24.3045 19.6836 23.9931C18.1121 23.572 16.694 24.48 16.1137 26.6458C15.5263 28.838 16.3207 30.3106 17.879 30.7281C19.0147 31.0325 20.109 30.6463 20.6343 29.5839L22.3642 30.0475C21.6083 31.8123 19.71 32.8748 17.4386 32.2662C14.9162 31.5903 13.5592 29.2593 14.3837 26.1823C15.2117 23.0921 17.5753 21.7721 20.0712 22.4409C22.1842 23.0071 23.4927 24.674 23.2135 26.878L21.4835 26.4145ZM32.8061 31.1185C31.9781 34.2087 29.6145 35.5287 27.1054 34.8564C24.5962 34.1841 23.2128 31.8459 24.0373 28.7689C24.8653 25.6787 27.2289 24.3588 29.738 25.0311C32.2472 25.7034 33.6341 28.0283 32.8061 31.1185ZM31.0761 30.655C31.66 28.476 30.8823 26.9938 29.324 26.5762C27.7657 26.1587 26.3512 27.0535 25.7673 29.2325C25.1834 31.4115 25.9611 32.8937 27.5194 33.3113C29.0777 33.7288 30.4923 32.834 31.0761 30.655ZM41.6541 28.3655L43.3841 28.8291L41.7104 35.0755C41.1619 37.1225 39.225 38.118 36.9007 37.4952C34.5632 36.8689 33.3968 35.0418 33.9452 32.9949L35.619 26.7484L37.3357 27.2084L35.7009 33.3096C35.3789 34.5114 35.9906 35.6094 37.3112 35.9633C38.6318 36.3171 39.6973 35.6685 40.0193 34.4667L41.6541 28.3655ZM42.5918 38.8644L45.1537 29.3033L48.7457 30.2657C50.9379 30.8531 51.7559 32.5019 51.264 34.3375C50.7722 36.1731 49.2298 37.1753 47.0244 36.5843L45.1755 36.0889L44.3086 39.3244L42.5918 38.8644ZM45.5541 34.6759L47.1653 35.1076C48.4595 35.4544 49.2352 34.8837 49.5076 33.8669C49.7836 32.8368 49.3901 31.9812 48.0959 31.6344L46.4848 31.2027L45.5541 34.6759ZM60.75 38.6061C59.922 41.6963 57.5584 43.0163 55.0493 42.3439C52.5402 41.6716 51.1568 39.3335 51.9812 36.2565C52.8093 33.1663 55.1728 31.8463 57.682 32.5187C60.1911 33.191 61.5781 35.5159 60.75 38.6061ZM59.02 38.1425C59.6039 35.9635 58.8263 34.4813 57.268 34.0638C55.7097 33.6462 54.2951 34.5411 53.7112 36.72C53.1274 38.899 53.905 40.3813 55.4633 40.7988C57.0216 41.2164 58.4362 40.3215 59.02 38.1425ZM71.4205 36.3414L68.8586 45.9026L67.3267 45.4921L64.5486 37.7414L64.4693 37.7202L62.7178 44.2571L61.001 43.7971L63.5629 34.236L65.1212 34.6535L67.8729 42.3971L67.9653 42.4219L69.7169 35.8849L71.4205 36.3414Z" fill="white"/>
</svg>
