<svg width="86" height="80" viewBox="0 0 86 80" fill="none" xmlns="http://www.w3.org/2000/svg">
<ellipse cx="42.6633" cy="38.6809" rx="34.7297" ry="26.2489" transform="rotate(-25.6076 42.6633 38.6809)" fill="#9EE9D2"/>
<path d="M28.5674 39.4507L32.8455 48.3768L30.4907 49.5055L27.2525 42.7492L27.2032 42.7728L25.7979 44.9019L24.8347 42.8922L26.3975 40.4907L28.5674 39.4507ZM38.5883 45.776C36.1841 46.9283 33.8946 45.9789 32.4942 43.0569C31.0878 40.1226 31.7878 37.7556 34.1919 36.6033C36.5961 35.451 38.8856 36.4004 40.2861 39.3224C41.6924 42.2567 40.9924 44.6238 38.5883 45.776ZM37.6842 43.8897C38.5413 43.4638 38.7673 42.3852 37.8573 40.4865C36.9709 38.6372 35.9591 38.076 35.096 38.4896C34.233 38.9033 34.0489 40.0376 34.923 41.8929C35.833 43.7915 36.8153 44.291 37.6842 43.8897ZM47.4651 41.5215C45.061 42.6738 42.7715 41.7244 41.371 38.8024C39.9647 35.8681 40.6646 33.501 43.0688 32.3488C45.4729 31.1965 47.7625 32.1459 49.1629 35.0679C50.5693 38.0022 49.8693 40.3693 47.4651 41.5215ZM46.561 39.6352C47.4182 39.2092 47.6441 38.1306 46.7341 36.232C45.8477 34.3826 44.8359 33.8215 43.9729 34.2351C43.1098 34.6487 42.9258 35.7831 43.7998 37.6383C44.7098 39.537 45.6921 40.0365 46.561 39.6352ZM53.0484 33.4634C51.6059 34.1548 50.3269 33.4791 49.6119 31.9873C48.891 30.4831 49.2024 29.0452 50.6079 28.3715C52.0751 27.6684 53.3541 28.344 54.0873 29.8423C54.8018 31.3646 54.5032 32.7661 53.0484 33.4634ZM52.4161 32.1442C52.9216 31.9019 52.9377 31.3029 52.5832 30.5632C52.2345 29.8358 51.758 29.4426 51.2402 29.6907C50.7717 29.9153 50.7792 30.5636 51.116 31.2664C51.4706 32.0061 51.9722 32.3569 52.4161 32.1442ZM61.7054 35.0451C60.2629 35.7365 58.9839 35.0608 58.2689 33.569C57.548 32.0649 57.8594 30.6269 59.2649 29.9533C60.7321 29.2501 62.0111 29.9258 62.732 31.4299C63.4588 32.9464 63.1479 34.3538 61.7054 35.0451ZM61.0731 33.7259C61.5663 33.4896 61.5824 32.8905 61.2402 32.1449C60.8792 31.4234 60.415 31.0243 59.9031 31.2848C59.4287 31.497 59.4239 32.1512 59.7607 32.854C60.1152 33.5937 60.6169 33.9446 61.0731 33.7259ZM54.4089 38.0419L56.2705 26.173L57.9103 25.3871L56.0486 37.256L54.4089 38.0419Z" fill="#147054"/>
<path d="M35.9189 56.8884L38.0036 62.661L43.311 59.5789L41.1974 65.3409L47.2442 66.3915L41.9213 69.4468L45.8782 74.1384L39.8367 73.0575L39.8522 79.1949L35.9189 74.4834L31.9857 79.1949L32.0012 73.0575L25.9597 74.1384L29.9165 69.4468L24.5937 66.3915L30.6405 65.3409L28.5269 59.5789L33.8343 62.661L35.9189 56.8884Z" fill="#ED826B"/>
</svg>
