<svg width="32" height="32" viewBox="0 0 32 32" fill="none" xmlns="http://www.w3.org/2000/svg">
<path d="M24.6232 11.5349C24.526 11.1359 24.3281 10.7702 24.0494 10.4749C23.7707 10.1796 23.4211 9.96516 23.036 9.85317C21.6288 9.5 16 9.5 16 9.5C16 9.5 10.3712 9.5 8.964 9.8868C8.57886 9.9988 8.22929 10.2133 7.95061 10.5086C7.67193 10.8038 7.474 11.1695 7.37681 11.5686C7.11927 13.0364 6.9933 14.5254 7.00047 16.0168C6.99129 17.5195 7.11727 19.0199 7.37681 20.4987C7.48395 20.8854 7.68632 21.2371 7.96435 21.5199C8.24239 21.8028 8.58669 22.0071 8.964 22.1132C10.3712 22.5 16 22.5 16 22.5C16 22.5 21.6288 22.5 23.036 22.1132C23.4211 22.0012 23.7707 21.7867 24.0494 21.4914C24.3281 21.1962 24.526 20.8305 24.6232 20.4314C24.8787 18.9747 25.0047 17.497 24.9995 16.0168C25.0087 14.5141 24.8827 13.0138 24.6232 11.5349V11.5349Z" stroke="#3F4148" stroke-width="2" stroke-linecap="round" stroke-linejoin="round"/>
<path d="M14 18.5L19 16L14 13.5V18.5Z" fill="#3F4148" stroke="#3F4148" stroke-width="2" stroke-linecap="round" stroke-linejoin="round"/>
</svg>
