<svg width="24" height="24" viewBox="0 0 24 24" fill="none" xmlns="http://www.w3.org/2000/svg">
<rect x="5" y="3" width="15" height="18" rx="2" fill="#D9D9D9"/>
<rect x="9" width="15" height="18" rx="2" fill="#BABECD"/>
<mask id="mask0_1137_8157" style="mask-type:alpha" maskUnits="userSpaceOnUse" x="9" y="0" width="15" height="18">
<rect x="9" width="15" height="18" rx="2" fill="#BABECD"/>
</mask>
<g mask="url(#mask0_1137_8157)">
<path d="M15.5934 4.90541C15.7545 3.45589 15.4823 2.35073 15.2458 1.783C15.1893 1.64747 15.0139 1.63942 14.9322 1.76139C13.5702 3.79402 10.9301 7.62271 9.9988 8.55405C8.86981 9.68304 5.22559 9.1352 3.54124 9.43995C3.30909 9.48196 3.11844 9.63651 3.00178 9.84156C2.41143 10.8792 2.28008 11.6031 2.94476 12.9324C3.31693 13.6768 3.68913 14.168 3.96452 14.4708C4.21346 14.7444 4.38129 15.1085 4.34446 15.4766L4.1966 16.9545C4.17356 17.1849 4.23116 17.4161 4.35959 17.6088L5.32355 19.0547C5.50902 19.3329 5.82125 19.5 6.1556 19.5H6.90891C7.17412 19.5 7.36118 19.3364 7.17982 19.1429C7.07442 19.0305 6.91018 18.8918 6.66287 18.7252C6.46488 18.5918 6.30865 18.4025 6.23317 18.1761L6.18962 18.0454C6.01122 17.5102 6.31453 16.9372 6.82068 16.688C7.55255 16.3278 8.29609 15.7805 8.29609 15.1216V14.3919" stroke="white"/>
<path d="M15.5 4C16.7474 4 18.0714 4.57567 18.7058 5.44101C18.9347 5.7533 19.2452 6.0284 19.6259 6.099C20.2742 6.21922 21.2681 6.45622 21.8194 6.84911C21.9458 6.93921 22.0274 7.07569 22.0672 7.22576C22.3409 8.25952 22.392 10.072 21 11C19.9815 11.679 18.757 11.7723 17.9236 11.7623C17.4301 11.7563 17.0154 12.0915 16.9181 12.5753C16.4425 14.9393 15.8269 15.1588 15.6074 15.3783C15.4886 15.4972 14.3756 15.9503 13.1748 16.108" stroke="white"/>
<path d="M17.5664 6.64185C17.5664 7.05606 17.2306 7.39185 16.8164 7.39185C16.4022 7.39185 16.0664 7.05606 16.0664 6.64185C16.0664 6.22763 16.4022 5.89185 16.8164 5.89185C17.2306 5.89185 17.5664 6.22763 17.5664 6.64185Z" fill="white"/>
</g>
<rect y="8" width="16" height="16" rx="8" fill="black"/>
<path d="M6.5 13L5 15H11" stroke="white" stroke-linecap="square"/>
<path d="M9.5 19L11 17H5" stroke="white" stroke-linecap="square"/>
</svg>
