<svg width="146" height="94" viewBox="0 0 146 94" fill="none" xmlns="http://www.w3.org/2000/svg">
<path fill-rule="evenodd" clip-rule="evenodd" d="M30 0C25.5817 0 22 3.58171 22 7.99999V50.2857C22 54.704 25.5817 58.2857 30 58.2857H116C120.418 58.2857 124 54.704 124 50.2857V41.1078C120.743 39.0099 118.586 35.3513 118.586 31.1889C118.586 27.0265 120.743 23.3679 124 21.27V8C124 3.58172 120.418 0 116 0H30Z" fill="#A0CCFF"/>
<path fill-rule="evenodd" clip-rule="evenodd" d="M18 4C13.5817 4 10 7.58172 10 12V68C10 72.4183 13.5817 76 18 76H128C132.418 76 136 72.4183 136 68V54.7801C131.976 52.1887 129.312 47.6692 129.312 42.5274C129.312 37.3856 131.976 32.8662 136 30.2747V12C136 7.58172 132.418 4 128 4H18Z" fill="#79B6FD"/>
<path fill-rule="evenodd" clip-rule="evenodd" d="M8 10C3.58172 10 0 13.5817 0 18V86C0 90.4183 3.58173 94 8 94H138C142.418 94 146 90.4183 146 86V67C137.716 67 131 60.2843 131 52C131 43.7157 137.716 37 146 37V18C146 13.5817 142.418 10 138 10H8Z" fill="#53A2FF"/>
</svg>
