<svg width="24" height="24" viewBox="0 0 24 24" fill="none" xmlns="http://www.w3.org/2000/svg">
<g clip-path="url(#clip0_951_8993)">
<path d="M13.1034 2.92711C14.2242 1.79309 16.0521 1.78238 17.1861 2.9032L18.9461 4.6427C20.0802 5.76352 20.0909 7.59143 18.9701 8.72546C17.8492 9.85948 16.0213 9.87019 14.8873 8.74937L13.1273 7.00987C11.9933 5.88905 11.9826 4.06114 13.1034 2.92711Z" fill="white"/>
<path fill-rule="evenodd" clip-rule="evenodd" d="M17.7865 5.81604L16.0265 4.07653C15.5405 3.59618 14.7571 3.60077 14.2767 4.08678C13.7964 4.57279 13.801 5.35618 14.287 5.83653L16.047 7.57604C16.533 8.05639 17.3164 8.0518 17.7967 7.56579C18.2771 7.07978 18.2725 6.29639 17.7865 5.81604ZM17.1861 2.9032C16.0521 1.78238 14.2242 1.79309 13.1034 2.92711C11.9826 4.06114 11.9933 5.88905 13.1273 7.00987L14.8873 8.74937C16.0213 9.87019 17.8492 9.85948 18.9701 8.72546C20.0909 7.59143 20.0802 5.76352 18.9461 4.6427L17.1861 2.9032Z" fill="black"/>
<path d="M4.92993 8.79429C5.71841 5.93223 9.40464 5.2041 12.2326 5.2041H12.9627C15.8083 5.2041 18.3072 7.19709 19.0802 10.0831L19.9478 13.3224C20.9631 17.113 18.2604 20.8763 14.5229 20.8763H10.6477C6.89269 20.8763 4.67173 19.3518 3.78767 15.8388C3.35872 14.1343 4.14146 11.6564 4.92993 8.79429Z" fill="white"/>
<path fill-rule="evenodd" clip-rule="evenodd" d="M12.9627 6.85381H12.2326C10.9294 6.85381 9.52873 7.02557 8.41983 7.46133C7.32255 7.89253 6.7267 8.48357 6.52039 9.23245C6.44361 9.51117 6.36821 9.78179 6.29489 10.0449C5.97941 11.1773 5.70247 12.1713 5.51927 13.0775C5.28983 14.2125 5.26667 14.9561 5.3875 15.4362C5.76211 16.9248 6.36681 17.8027 7.10731 18.3378C7.86695 18.8868 8.97917 19.2266 10.6477 19.2266H14.5229C17.0625 19.2266 19.1189 16.6042 18.3543 13.7492L17.4866 10.5099C16.8933 8.29453 15.0104 6.85381 12.9627 6.85381ZM19.0802 10.0831C18.3072 7.19709 15.8083 5.2041 12.9627 5.2041H12.2326C9.40464 5.2041 5.71841 5.93223 4.92993 8.79429C4.85713 9.05856 4.78437 9.31955 4.71262 9.57697C4.00724 12.1074 3.39833 14.2917 3.78767 15.8388C4.67173 19.3518 6.89269 20.8763 10.6477 20.8763H14.5229C18.2604 20.8763 20.9631 17.113 19.9478 13.3224L19.0802 10.0831Z" fill="black"/>
<path d="M2.01562 6.23538C2.01562 4.64094 3.30818 3.34839 4.90262 3.34839H7.37718C8.97163 3.34839 10.2642 4.64094 10.2642 6.23538C10.2642 7.82982 8.97163 9.12237 7.37718 9.12237H4.90262C3.30818 9.12237 2.01562 7.82982 2.01562 6.23538Z" fill="white"/>
<path fill-rule="evenodd" clip-rule="evenodd" d="M7.37718 4.9981H4.90262C4.21929 4.9981 3.66534 5.55205 3.66534 6.23538C3.66534 6.91871 4.21929 7.47266 4.90262 7.47266H7.37718C8.06052 7.47266 8.61447 6.91871 8.61447 6.23538C8.61447 5.55205 8.06052 4.9981 7.37718 4.9981ZM4.90262 3.34839C3.30818 3.34839 2.01562 4.64094 2.01562 6.23538C2.01562 7.82982 3.30818 9.12237 4.90262 9.12237H7.37718C8.97163 9.12237 10.2642 7.82982 10.2642 6.23538C10.2642 4.64094 8.97163 3.34839 7.37718 3.34839H4.90262Z" fill="black"/>
<path fill-rule="evenodd" clip-rule="evenodd" d="M12.7382 10.5659C12.7382 11.2492 12.1843 11.8032 11.501 11.8032C10.8176 11.8032 10.2637 11.2492 10.2637 10.5659C10.2637 9.88256 10.8176 9.32861 11.501 9.32861C12.1843 9.32861 12.7382 9.88256 12.7382 10.5659ZM16.8625 10.5659C16.8625 11.2492 16.3086 11.8032 15.6252 11.8032C14.9419 11.8032 14.3879 11.2492 14.3879 10.5659C14.3879 9.88256 14.9419 9.32861 15.6252 9.32861C16.3086 9.32861 16.8625 9.88256 16.8625 10.5659ZM18.9257 13.2764C18.9257 14.162 17.8347 14.9857 16.8625 15.3837V16.3399C16.8625 16.7954 17.2318 17.1647 17.6874 17.1647H18.5122V18.8144H17.6874C17.0536 18.8144 16.4755 18.5762 16.0377 18.1843C15.5999 18.5762 15.0217 18.8144 14.3879 18.8144H13.5631C12.1964 18.8144 11.0885 17.7065 11.0885 16.3399H12.7382C12.7382 16.7954 13.1075 17.1647 13.5631 17.1647H14.3879C14.8435 17.1647 15.2128 16.7954 15.2128 16.3399V15.5378C14.1683 15.2566 12.7382 14.3825 12.7382 13.2764C12.7382 11.9245 14.1234 11.8032 15.832 11.8032C17.5406 11.8032 18.9257 12.0372 18.9257 13.2764Z" fill="black"/>
</g>
<defs>
<clipPath id="clip0_951_8993">
<rect width="24" height="24" rx="12" fill="white"/>
</clipPath>
</defs>
</svg>
