<svg width="24" height="24" viewBox="0 0 24 24" fill="none" xmlns="http://www.w3.org/2000/svg">
<g clip-path="url(#clip0_951_8879)">
<path d="M5.08791 9.81513C5.96856 6.7818 8.74728 4.69507 11.9059 4.69507H12.7213C15.8995 4.69507 18.6905 6.80732 19.5538 9.866L20.5228 13.2992C21.6568 17.3166 18.6382 21.3051 14.4638 21.3051H10.1356C5.9417 21.3051 2.92021 17.2817 4.08951 13.2541L5.08791 9.81513Z" fill="white"/>
<path fill-rule="evenodd" clip-rule="evenodd" d="M12.7213 6.19507H11.9059C9.41464 6.19507 7.22301 7.84091 6.52843 10.2333L5.53003 13.6723C4.63932 16.7403 6.94092 19.8051 10.1356 19.8051H14.4638C17.6436 19.8051 19.943 16.7669 19.0793 13.7066L18.1102 10.2735C17.4293 7.86104 15.228 6.19507 12.7213 6.19507ZM11.9059 4.69507C8.74728 4.69507 5.96856 6.7818 5.08791 9.81513L4.08951 13.2541C2.92021 17.2817 5.9417 21.3051 10.1356 21.3051H14.4638C18.6382 21.3051 21.6568 17.3166 20.5228 13.2992L19.5538 9.866C18.6905 6.80732 15.8995 4.69507 12.7213 4.69507H11.9059Z" fill="#9296A4"/>
<path fill-rule="evenodd" clip-rule="evenodd" d="M11.25 11.1252C11.25 11.7466 10.7463 12.2502 10.125 12.2502C9.50368 12.2502 9 11.7466 9 11.1252C9 10.5039 9.50368 10.0002 10.125 10.0002C10.7463 10.0002 11.25 10.5039 11.25 11.1252ZM15 11.1252C15 11.7466 14.4963 12.2502 13.875 12.2502C13.2537 12.2502 12.75 11.7466 12.75 11.1252C12.75 10.5039 13.2537 10.0002 13.875 10.0002C14.4963 10.0002 15 10.5039 15 11.1252ZM15.1475 14.6075C15.1475 15.6796 13.3891 16.6519 12.4684 16.7437L12.4684 16.2958H11.9326L11.9326 16.7027C10.9767 16.4993 9.52148 15.6715 9.52148 14.6075C9.52148 13.3783 10.7809 13.268 12.3345 13.268C13.8881 13.268 15.1475 13.4807 15.1475 14.6075Z" fill="#9296A4"/>
<path fill-rule="evenodd" clip-rule="evenodd" d="M11.5508 20.5L11.5508 16L13.0508 16L13.0508 20.5L11.5508 20.5Z" fill="#9296A4"/>
<path d="M3.0343 6.03352C2.85998 5.35545 3.37206 4.69507 4.07217 4.69507H8.66616C9.40854 4.69507 9.92602 5.43166 9.67428 6.13006L8.40175 9.66055C8.17198 10.298 7.56715 10.7229 6.88956 10.7229H5.48636C4.75276 10.7229 4.11223 10.2262 3.92956 9.51573L3.0343 6.03352Z" fill="white"/>
<path fill-rule="evenodd" clip-rule="evenodd" d="M4.62462 6.19507L5.38232 9.14224C5.39453 9.18972 5.43734 9.22291 5.48636 9.22291H6.88956C6.93484 9.22291 6.97526 9.19452 6.99062 9.15192L8.05639 6.19507H4.62462ZM4.07217 4.69507C3.37206 4.69507 2.85998 5.35545 3.0343 6.03352L3.92956 9.51573C4.11223 10.2262 4.75276 10.7229 5.48636 10.7229H6.88956C7.56715 10.7229 8.17198 10.298 8.40175 9.66055L9.67428 6.13006C9.92602 5.43166 9.40854 4.69507 8.66616 4.69507H4.07217Z" fill="#9296A4"/>
<path d="M20.9657 6.03352C21.14 5.35545 20.6279 4.69507 19.9278 4.69507H15.3338C14.5915 4.69507 14.074 5.43166 14.3257 6.13006L15.5983 9.66055C15.828 10.298 16.4328 10.7229 17.1104 10.7229H18.5136C19.2472 10.7229 19.8878 10.2262 20.0704 9.51573L20.9657 6.03352Z" fill="white"/>
<path fill-rule="evenodd" clip-rule="evenodd" d="M19.3754 6.19507L18.6177 9.14224C18.6055 9.18972 18.5627 9.22291 18.5136 9.22291H17.1104C17.0652 9.22291 17.0247 9.19452 17.0094 9.15192L15.9436 6.19507H19.3754ZM19.9278 4.69507C20.6279 4.69507 21.14 5.35545 20.9657 6.03352L20.0704 9.51573C19.8878 10.2262 19.2472 10.7229 18.5136 10.7229H17.1104C16.4328 10.7229 15.828 10.298 15.5983 9.66055L14.3257 6.13006C14.074 5.43166 14.5915 4.69507 15.3338 4.69507H19.9278Z" fill="#9296A4"/>
</g>
<defs>
<clipPath id="clip0_951_8879">
<rect width="24" height="24" rx="12" fill="white"/>
</clipPath>
</defs>
</svg>
