<svg width="24" height="24" viewBox="0 0 24 24" fill="none" xmlns="http://www.w3.org/2000/svg">
<rect x="15.9126" y="0.164189" width="8" height="5" rx="2.5" transform="rotate(44.6644 15.9126 0.164189)" fill="white" stroke="black" stroke-width="2"/>
<path d="M4.49637 8.61811C4.86041 7.29672 5.89969 6.39439 7.39748 5.8058C8.90229 5.21446 10.7385 5 12.3856 5H13.2707C16.2368 5 18.8929 7.0814 19.7212 10.1737L20.773 14.1008C21.8519 18.1292 18.9671 22 15.1622 22H10.4641C8.31464 22 6.73484 21.563 5.5863 20.733C4.44936 19.9114 3.61227 18.6159 3.11726 16.6488C2.914 15.8411 2.98165 14.7566 3.26659 13.3471C3.49655 12.2095 3.84465 10.9604 4.22799 9.58489C4.31593 9.26935 4.40573 8.94715 4.49637 8.61811Z" fill="white" stroke="black" stroke-width="2"/>
<rect x="1" y="2.75" width="8" height="5" rx="2.5" fill="white" stroke="black" stroke-width="2"/>
<path fill-rule="evenodd" clip-rule="evenodd" d="M13 10.5C13 11.3284 12.3284 12 11.5 12C10.6716 12 10 11.3284 10 10.5C10 9.67157 10.6716 9 11.5 9C12.3284 9 13 9.67157 13 10.5ZM18 10.5C18 11.3284 17.3284 12 16.5 12C15.6716 12 15 11.3284 15 10.5C15 9.67157 15.6716 9 16.5 9C17.3284 9 18 9.67157 18 10.5ZM20.5013 13.786C20.5013 14.8597 19.1786 15.8583 18 16.3407V17.5C18 18.0523 18.4477 18.5 19 18.5H20V20.5H19C18.2316 20.5 17.5308 20.2111 17 19.7361C16.4692 20.2111 15.7684 20.5 15 20.5H14C12.3431 20.5 11 19.1569 11 17.5H13C13 18.0523 13.4477 18.5 14 18.5H15C15.5523 18.5 16 18.0523 16 17.5V16.5276C14.7337 16.1867 13 15.127 13 13.786C13 12.1471 14.6792 12 16.7507 12C18.8221 12 20.5013 12.2837 20.5013 13.786Z" fill="black"/>
</svg>
