<svg width="24" height="24" viewBox="0 0 24 24" fill="none" xmlns="http://www.w3.org/2000/svg">
<path fill-rule="evenodd" clip-rule="evenodd" d="M7.5672 4.32182L3.49393 5.02494C2.74008 5.9432 2.13201 6.98569 1.70508 8.11706L3.1342 12L1.70508 15.8829C2.13201 17.0143 2.74008 18.0568 3.49393 18.9751L7.5672 19.6782L10.214 22.8557C10.7954 22.9506 11.392 23 12.0001 23C12.6083 23 13.205 22.9506 13.7864 22.8557L16.4332 19.6782L20.5063 18.9751C21.2602 18.0568 21.8683 17.0142 22.2953 15.8828L20.8662 12L22.2953 8.11721C21.8683 6.98578 21.2602 5.94322 20.5063 5.02492L16.4332 4.32182L13.7864 1.14429C13.205 1.04936 12.6083 1 12.0001 1C11.392 1 10.7954 1.04935 10.214 1.14427L7.5672 4.32182ZM12 17C14.7614 17 17 14.7614 17 12C17 9.23858 14.7614 7 12 7C9.23858 7 7 9.23858 7 12C7 14.7614 9.23858 17 12 17Z" fill="#9296A4"/>
</svg>
