<svg width="24" height="25" viewBox="0 0 24 25" fill="none" xmlns="http://www.w3.org/2000/svg">
<path d="M3.74488 9.03231C4.79503 5.41514 8.1086 2.92676 11.8751 2.92676H12.9624C16.7523 2.92676 20.0805 5.44557 21.11 9.09298L22.4021 13.6706C23.7339 18.389 20.1886 23.0735 15.2858 23.0735H9.5148C4.58907 23.0735 1.04034 18.348 2.41368 13.6176L3.74488 9.03231Z" fill="white" stroke="#9296A4" stroke-width="2"/>
<path fill-rule="evenodd" clip-rule="evenodd" d="M11 10.5002C11 11.3287 10.3284 12.0002 9.5 12.0002C8.67157 12.0002 8 11.3287 8 10.5002C8 9.67182 8.67157 9.00024 9.5 9.00024C10.3284 9.00024 11 9.67182 11 10.5002ZM16 10.5002C16 11.3287 15.3284 12.0002 14.5 12.0002C13.6716 12.0002 13 11.3287 13 10.5002C13 9.67182 13.6716 9.00024 14.5 9.00024C15.3284 9.00024 16 9.67182 16 10.5002ZM16.1966 15.1433C16.1966 16.5727 13.8521 17.8691 12.6246 17.9915L12.6246 17.3944H11.9102L11.9102 17.9368C10.6357 17.6657 8.69531 16.5619 8.69531 15.1433C8.69531 13.5043 10.3745 13.3572 12.446 13.3572C14.5174 13.3572 16.1966 13.6409 16.1966 15.1433Z" fill="#9296A4"/>
<path fill-rule="evenodd" clip-rule="evenodd" d="M11.4004 23L11.4004 17L13.4004 17L13.4004 23L11.4004 23Z" fill="#9296A4"/>
<path d="M1.01424 3.46236C0.944483 3.19102 1.1494 2.92676 1.42956 2.92676H7.55487C7.85195 2.92676 8.05903 3.22151 7.95829 3.50099L6.26158 8.20831C6.09816 8.66168 5.668 8.96389 5.18607 8.96389H3.31515C2.7934 8.96389 2.33784 8.61063 2.20792 8.10531L1.01424 3.46236Z" fill="white" stroke="#9296A4" stroke-width="2"/>
<path d="M22.9858 3.46236C23.0555 3.19102 22.8506 2.92676 22.5704 2.92676H16.4451C16.1481 2.92676 15.941 3.22151 16.0417 3.50099L17.7384 8.20831C17.9018 8.66168 18.332 8.96389 18.8139 8.96389H20.6848C21.2066 8.96389 21.6622 8.61063 21.7921 8.10531L22.9858 3.46236Z" fill="white" stroke="#9296A4" stroke-width="2"/>
</svg>
